<?xml version="1.0" encoding="UTF-8" standalone="no"?>
<svg
   xmlns:dc="http://purl.org/dc/elements/1.1/"
   xmlns:cc="http://creativecommons.org/ns#"
   xmlns:rdf="http://www.w3.org/1999/02/22-rdf-syntax-ns#"
   xmlns:svg="http://www.w3.org/2000/svg"
   xmlns="http://www.w3.org/2000/svg"
   xmlns:sodipodi="http://sodipodi.sourceforge.net/DTD/sodipodi-0.dtd"
   xmlns:inkscape="http://www.inkscape.org/namespaces/inkscape"
   width="20mm"
   height="20mm"
   viewBox="0 0 180 175"
   version="1.1"
   id="svg3777"
   sodipodi:docname="mastodon.svg"
   inkscape:version="0.92.5 (2060ec1f9f, 2020-04-08)">
  <metadata
     id="metadata3783">
    <rdf:RDF>
      <cc:Work
         rdf:about="">
        <dc:format>image/svg+xml</dc:format>
        <dc:type
           rdf:resource="http://purl.org/dc/dcmitype/StillImage" />
      </cc:Work>
    </rdf:RDF>
  </metadata>
  <defs
     id="defs3781" />
  <sodipodi:namedview
     pagecolor="#ffffff"
     bordercolor="#666666"
     borderopacity="1"
     objecttolerance="10"
     gridtolerance="10"
     guidetolerance="10"
     inkscape:pageopacity="0"
     inkscape:pageshadow="2"
     inkscape:window-width="1920"
     inkscape:window-height="1043"
     id="namedview3779"
     showgrid="false"
     inkscape:zoom="12.678"
     inkscape:cx="38.780543"
     inkscape:cy="35.656367"
     inkscape:window-x="0"
     inkscape:window-y="0"
     inkscape:window-maximized="1"
     inkscape:current-layer="svg3777" />
  <path
     id="path3773"
     transform="matrix(2.3812499,0,0,2.3812499,0,-2.5)"
     style="stroke:#ffffff;stroke-width:2.82176352"
     d="m 37.507812,7.7050781 c -7.930474,0.064813 -15.558306,0.923033 -20.003906,2.9648439 0,0 -8.816406,3.945177 -8.816406,17.402344 0,3.081013 -0.06077,6.764615 0.037109,10.671875 0.3200941,13.160003 2.4129866,26.130783 14.5800786,29.351562 5.610456,1.48451 10.427156,1.795428 14.30664,1.582031 7.034566,-0.389757 10.982422,-2.509765 10.982422,-2.509765 L 48.361328,62.0625 c 0,0 -5.026143,1.585691 -10.671875,1.392578 -5.593705,-0.191794 -11.499569,-0.603238 -12.404297,-7.470703 -0.08333,-0.603154 -0.125,-1.248116 -0.125,-1.925781 0,0 5.491998,1.341386 12.451172,1.660156 4.25513,0.194877 8.245629,-0.248315 12.298828,-0.732422 7.772637,-0.928096 14.537737,-5.717809 15.388672,-10.09375 1.339897,-6.893041 1.230469,-16.820312 1.230469,-16.820312 0,-13.457167 -8.816406,-17.402344 -8.816406,-17.402344 C 53.267288,8.6281111 45.633599,7.7698907 37.703125,7.7050781 Z" />
  <path
     id="path3775"
     transform="matrix(2.3812499,0,0,2.3812499,0,-2.5)"
     style="fill:#ffffff;stroke-width:0.35272044"
     d="m 41.902344,19.591797 c -2.854831,0 -5.153612,1.003339 -6.910156,2.960937 -1.703199,1.95804 -2.552735,4.603472 -2.552735,7.933594 V 46.78125 h 6.455078 V 30.966797 c 0,-3.33409 1.403094,-5.027344 4.208985,-5.027344 3.101736,0 4.658203,2.007576 4.658203,5.976563 v 8.65625 h 6.416015 v -8.65625 c 0,-3.968987 1.556467,-5.976563 4.658204,-5.976563 2.805888,0 4.208984,1.693254 4.208984,5.027344 V 46.78125 h 2.1875 c 0.03414,-0.05134 0.05847,-0.108772 0.0957,-0.158203 0.137965,-0.161567 0.271444,-0.328856 0.414063,-0.486328 0.07177,-0.07924 0.148993,-0.151023 0.222656,-0.228516 0.07532,-0.07924 0.148237,-0.162015 0.224609,-0.240234 0.05318,-0.05447 0.121362,-0.09518 0.164063,-0.158203 0.06688,-0.09872 0.105281,-0.213457 0.158203,-0.320313 0.06544,-0.139191 0.127764,-0.280763 0.197265,-0.417969 0.05485,-0.108276 0.115794,-0.213561 0.177735,-0.318359 -10e-7,-0.140605 0,-0.281173 0,-0.421875 v -0.558594 -0.533203 c 0,-0.173304 0.02024,-0.103871 -0.02734,-0.214844 -0.0726,-0.187539 -0.05322,-0.385727 -0.07031,-0.580078 -0.0025,-0.02902 -0.01726,-0.05747 -0.02344,-0.08594 -0.03591,-0.164865 -0.03036,-0.168815 -0.04883,-0.347656 -0.0062,-0.285839 0.02276,-0.571503 0.01563,-0.857422 -0.0054,-0.216788 -0.0024,-0.433552 -0.002,-0.650391 -1.51e-4,-0.364826 -4.2e-5,-0.728924 0,-1.09375 7.5e-5,-0.387741 1.2e-5,-0.776322 0,-1.164063 -0.01587,-0.237851 0.0204,-0.47153 0.08984,-0.699218 0.118115,-0.387194 0.03624,-0.05059 0.09766,-0.322266 -3.57e-4,-0.04099 0.0017,-0.08209 0,-0.123047 -0.0042,-0.106892 -0.02785,-0.213429 -0.02344,-0.320312 0.0089,-0.215592 0.06289,-0.423753 0.08984,-0.636719 1.39e-4,-0.03698 0.0013,-0.07241 0,-0.109375 -0.0013,-0.03967 -0.0099,-0.07966 -0.0059,-0.119141 0.03704,-0.357881 0.02762,-0.114245 0.07813,-0.357422 0.0055,-0.02658 0.0057,-0.05497 0.0078,-0.08203 0.01676,-0.06862 0.03208,-0.136463 0.04883,-0.205078 0.0336,-0.173451 0.03447,-0.364482 0.136719,-0.517578 0.09302,-0.139293 0.170109,-0.176138 0.0957,-0.138672 -0.01138,0.01912 -0.0391,0.08048 -0.03516,0.05859 0.04769,-0.264633 0.176153,-0.396966 0.431641,-0.398438 0.02596,-1.49e-4 0.06301,0.0093 0.0918,0.01172 10e-7,-0.04689 0,-0.09371 0,-0.140625 -8e-6,-0.440982 -9.6e-5,-0.883236 0,-1.324219 7.6e-5,-0.470017 1.47e-4,-0.940139 0,-1.410156 4.2e-4,-0.514954 0.0039,-1.029984 -0.002,-1.544922 -0.0047,-0.628257 0.0079,-1.254783 0.02148,-1.882812 -0.02012,-0.277802 -0.07659,-0.550802 -0.09766,-0.828125 -0.01906,-0.251048 0.01291,-0.506511 -0.0059,-0.757813 -0.0021,-0.323328 0.01547,-0.64443 0.02734,-0.966797 l -0.830078,-2.578125 c -1.756548,-1.957598 -4.055324,-2.960937 -6.910157,-2.960937 -3.304109,0 -5.805168,1.269006 -7.458984,3.808594 l -1.607422,2.695312 -1.609375,-2.695312 c -1.653375,-2.539588 -4.15532,-3.808594 -7.458984,-3.808594 z m -19.720703,3.042969 c -1.958481,0 -3.546875,1.587954 -3.546875,3.546875 0,1.95848 1.588394,3.546875 3.546875,3.546875 1.958921,0 3.546875,-1.588395 3.546875,-3.546875 0,-1.958921 -1.587954,-3.546875 -3.546875,-3.546875 z" />
</svg>
